<?xml version="1.0" encoding="UTF-8"?>
<svg version="1.1" xmlns="http://www.w3.org/2000/svg" width="1200" height="1200">
<path d="M0 0 C1.00459259 -0.00705963 2.00918518 -0.01411926 3.04421997 -0.02139282 C44.59214215 -0.24716406 44.59214215 -0.24716406 63.0859375 3.203125 C64.22256836 3.40711914 65.35919922 3.61111328 66.53027344 3.82128906 C116.24031192 12.90153273 162.29863889 32.91604407 202.0859375 64.203125 C203.08109375 64.98429687 204.07625 65.76546875 205.1015625 66.5703125 C221.80880769 79.98384364 238.00343034 95.21372577 251.0859375 112.203125 C252.15961968 113.53924001 253.23531277 114.87374042 254.3125 116.20703125 C293.48174811 165.05765334 319.01803168 229.44155673 319.2890625 292.4921875 C319.29476257 293.55311615 319.30046265 294.6140448 319.30633545 295.7071228 C319.31573413 297.94764222 319.32229887 300.18817515 319.32617188 302.42871094 C319.3357718 305.77044599 319.36680116 309.11153654 319.3984375 312.453125 C319.49613512 332.12042896 317.49918004 351.33761308 313.3984375 370.578125 C313.01606934 372.38446411 313.01606934 372.38446411 312.62597656 374.22729492 C308.13497261 394.7198479 301.37610868 414.02895633 292.87695312 433.18554688 C291.96426718 435.15227589 291.96426718 435.15227589 292.0859375 437.203125 C298.7364064 429.18864478 305.38106782 421.17591927 311.7734375 412.953125 C315.78559372 407.79547978 319.93487807 402.77852033 324.17700195 397.80883789 C327.48827692 393.92585754 330.701694 389.97948643 333.87109375 385.98046875 C336.6869353 382.44949284 339.54395966 378.95288381 342.3984375 375.453125 C346.55858529 370.3494509 350.66561268 365.21070448 354.7109375 360.015625 C358.74560855 354.83928713 362.91615785 349.80053648 367.17675781 344.80908203 C370.49051709 340.92329068 373.70554126 336.97329358 376.87890625 332.97265625 C379.65467063 329.48944042 382.46285315 326.03326672 385.2734375 322.578125 C385.8288623 321.89516357 386.38428711 321.21220215 386.95654297 320.50854492 C388.09771537 319.10554721 389.2389924 317.70263459 390.38037109 316.29980469 C393.11710229 312.93549786 395.851433 309.56924172 398.5859375 306.203125 C399.66925857 304.8697817 400.75259192 303.53644838 401.8359375 302.203125 C402.3721875 301.543125 402.9084375 300.883125 403.4609375 300.203125 C408.3359375 294.203125 408.3359375 294.203125 409.96142578 292.20263672 C411.04327862 290.87105049 412.12498468 289.539345 413.20654297 288.20751953 C415.93632858 284.84645559 418.66873967 281.48758881 421.40625 278.1328125 C426.56611386 271.80426153 431.69244603 265.4570561 436.7109375 259.015625 C440.74575788 253.83939925 444.91615221 248.80054309 449.17675781 243.80908203 C452.49051709 239.92329068 455.70554126 235.97329358 458.87890625 231.97265625 C461.65467063 228.48944042 464.46285315 225.03326672 467.2734375 221.578125 C467.8288623 220.89516357 468.38428711 220.21220215 468.95654297 219.50854492 C470.09771537 218.10554721 471.2389924 216.70263459 472.38037109 215.29980469 C475.11710229 211.93549786 477.851433 208.56924172 480.5859375 205.203125 C481.66925857 203.8697817 482.75259192 202.53644838 483.8359375 201.203125 C484.3721875 200.543125 484.9084375 199.883125 485.4609375 199.203125 C490.3359375 193.203125 490.3359375 193.203125 491.96142578 191.20263672 C493.04327862 189.87105049 494.12498468 188.539345 495.20654297 187.20751953 C497.93632858 183.84645559 500.66873967 180.48758881 503.40625 177.1328125 C508.56611386 170.80426153 513.69244603 164.4570561 518.7109375 158.015625 C522.7438722 152.84181838 526.9132775 147.8062264 531.17016602 142.81567383 C538.8043188 133.85872434 545.90692025 124.53584743 553.0859375 115.203125 C473.5559375 115.203125 394.0259375 115.203125 312.0859375 115.203125 C312.0859375 77.253125 312.0859375 39.303125 312.0859375 0.203125 C445.4059375 0.203125 578.7259375 0.203125 716.0859375 0.203125 C716.0859375 116.203125 716.0859375 116.203125 707.0859375 126.203125 C705.26049832 128.45909229 703.4680162 130.70998132 701.7109375 133.015625 C698.10739609 137.67423441 694.41890549 142.23144274 690.5859375 146.703125 C686.39498067 151.59936571 682.37756593 156.60388468 678.421875 161.69140625 C674.1454509 167.17245686 669.72000241 172.5242535 665.28466797 177.87695312 C661.58660939 182.35072182 657.96119609 186.87105558 654.3984375 191.453125 C650.38623202 196.61073028 646.23699797 201.62772845 641.99487305 206.59741211 C638.68123935 210.48315843 635.46626236 214.4330464 632.29296875 218.43359375 C629.51720437 221.91680958 626.70902185 225.37298328 623.8984375 228.828125 C623.3430127 229.51108643 622.78758789 230.19404785 622.21533203 230.89770508 C621.07415963 232.30070279 619.9328826 233.70361541 618.79150391 235.10644531 C616.05477271 238.47075214 613.320442 241.83700828 610.5859375 245.203125 C609.50261643 246.5364683 608.41928308 247.86980162 607.3359375 249.203125 C606.7996875 249.863125 606.2634375 250.523125 605.7109375 251.203125 C600.8359375 257.203125 600.8359375 257.203125 599.21044922 259.20361328 C598.12859638 260.53519951 597.04689032 261.866905 595.96533203 263.19873047 C593.23554642 266.55979441 590.50313533 269.91866119 587.765625 273.2734375 C582.60576114 279.60198847 577.47942897 285.9491939 572.4609375 292.390625 C568.42611712 297.56685075 564.25572279 302.60570691 559.99511719 307.59716797 C556.68135791 311.48295932 553.46633374 315.43295642 550.29296875 319.43359375 C547.51720437 322.91680958 544.70902185 326.37298328 541.8984375 329.828125 C541.3430127 330.51108643 540.78758789 331.19404785 540.21533203 331.89770508 C539.07415963 333.30070279 537.9328826 334.70361541 536.79150391 336.10644531 C534.05477271 339.47075214 531.320442 342.83700828 528.5859375 346.203125 C527.50261643 347.5364683 526.41928308 348.86980162 525.3359375 350.203125 C524.7996875 350.863125 524.2634375 351.523125 523.7109375 352.203125 C518.8359375 358.203125 518.8359375 358.203125 517.21044922 360.20361328 C516.12859638 361.53519951 515.04689032 362.866905 513.96533203 364.19873047 C511.23554642 367.55979441 508.50313533 370.91866119 505.765625 374.2734375 C500.60576114 380.60198847 495.47942897 386.9491939 490.4609375 393.390625 C486.42611712 398.56685075 482.25572279 403.60570691 477.99511719 408.59716797 C474.68135791 412.48295932 471.46633374 416.43295642 468.29296875 420.43359375 C465.51720437 423.91680958 462.70902185 427.37298328 459.8984375 430.828125 C459.3430127 431.51108643 458.78758789 432.19404785 458.21533203 432.89770508 C457.07415963 434.30070279 455.9328826 435.70361541 454.79150391 437.10644531 C452.05477271 440.47075214 449.320442 443.83700828 446.5859375 447.203125 C445.50261643 448.5364683 444.41928308 449.86980162 443.3359375 451.203125 C442.7996875 451.863125 442.2634375 452.523125 441.7109375 453.203125 C436.8359375 459.203125 436.8359375 459.203125 435.20947266 461.20483398 C434.13089947 462.53237105 433.05244808 463.86000708 431.97412109 465.18774414 C429.19397018 468.61060003 426.411444 472.03148325 423.625 475.44921875 C423.05330078 476.15111328 422.48160156 476.85300781 421.89257812 477.57617188 C420.81655847 478.89713909 419.73980534 480.2175094 418.66210938 481.53710938 C414.7259003 486.37185645 410.91647947 491.27814247 407.0859375 496.203125 C560.5359375 496.698125 560.5359375 496.698125 717.0859375 497.203125 C717.0859375 535.483125 717.0859375 573.763125 717.0859375 613.203125 C627.31058684 613.30236927 627.31058684 613.30236927 582.87260437 613.33015442 C581.87977483 613.33077568 581.87977483 613.33077568 580.86688813 613.33140948 C566.48312482 613.34038772 552.0993612 613.34869833 537.71559711 613.35632099 C530.66204189 613.36006307 523.60848674 613.36395273 516.55493164 613.36791992 C515.50204823 613.36850834 515.50204823 613.36850834 514.42789446 613.36910864 C491.66698098 613.38189802 468.90608981 613.40443593 446.14518985 613.43201666 C422.09741703 613.46110392 398.04965882 613.4791098 374.0018689 613.48539048 C359.5914389 613.48951351 345.18107293 613.50255094 330.77066263 613.5268744 C320.89831542 613.54269248 311.02600148 613.54753429 301.15364251 613.54362913 C295.45185387 613.54170146 289.75017738 613.54472378 284.04840851 613.56074142 C278.83297845 613.57528637 273.61773651 613.57611264 268.402298 613.56582168 C266.51123527 613.56454885 264.62016104 613.56840005 262.72912113 613.57777455 C260.16629501 613.58974497 257.60415554 613.58336721 255.04134083 613.57226849 C254.30043354 613.58014953 253.55952625 613.58803057 252.79616722 613.59615043 C245.32948941 613.52265602 241.81942787 610.18835985 236.74487305 605.08911133 C236.23695724 604.58148758 235.72904144 604.07386383 235.20573425 603.55085754 C233.53991923 601.88365707 231.8812875 600.20950111 230.22265625 598.53515625 C229.06438742 597.37315451 227.90567418 596.2115956 226.74653625 595.05046082 C223.70570443 592.00201451 220.67092838 588.94760873 217.63739014 585.89190674 C214.53729797 582.77130903 211.43149434 579.65640713 208.32617188 576.54101562 C202.24050136 570.43393375 196.16121896 564.32054184 190.0859375 558.203125 C185.71129554 559.85981338 182.09780589 562.10838824 178.2734375 564.765625 C147.61195745 585.5290484 113.02140066 599.41598853 76.8359375 606.890625 C75.48411377 607.17607178 75.48411377 607.17607178 74.10498047 607.46728516 C55.12922398 611.19995411 36.04565411 612.70908833 16.72875977 612.59423828 C13.51991434 612.57810729 10.3123244 612.59424077 7.10351562 612.61328125 C-11.60912799 612.63252433 -30.07952033 610.76110632 -48.4140625 606.953125 C-49.43556396 606.74333008 -50.45706543 606.53353516 -51.50952148 606.31738281 C-111.2493611 593.61126485 -163.66895222 563.38084225 -206.7890625 520.578125 C-207.65692383 519.71960938 -208.52478516 518.86109375 -209.41894531 517.9765625 C-215.33818224 512.02785407 -220.71006774 505.78281694 -225.9140625 499.203125 C-226.48447266 498.4920459 -227.05488281 497.7809668 -227.64257812 497.04833984 C-266.76878895 448.01906634 -292.84546205 384.12628858 -293.1171875 320.9140625 C-293.12288757 319.85313385 -293.12858765 318.7922052 -293.13446045 317.6991272 C-293.14385913 315.45860778 -293.15042387 313.21807485 -293.15429688 310.97753906 C-293.1638968 307.63580401 -293.19492616 304.29471346 -293.2265625 300.953125 C-293.3202946 281.95780595 -291.5302244 263.31779311 -287.6640625 244.703125 C-287.45426758 243.68162354 -287.24447266 242.66012207 -287.02832031 241.60766602 C-272.90311833 175.19577663 -235.69158122 111.36876383 -181.9140625 69.203125 C-180.74934259 68.25109014 -179.58670183 67.29650787 -178.42578125 66.33984375 C-164.78992822 55.15439312 -150.22698966 45.91482409 -134.9140625 37.203125 C-134.32254395 36.86071777 -133.73102539 36.51831055 -133.12158203 36.16552734 C-93.76303287 13.47993194 -45.48216642 0.21391739 0 0 Z M-131.9140625 180.203125 C-165.87274278 218.93675385 -181.47549337 269.18796022 -178.9140625 320.203125 C-175.5054433 369.72278722 -151.8793568 417.66381732 -114.4453125 450.359375 C-111.64367126 452.69956945 -108.79555598 454.96196341 -105.9140625 457.203125 C-105.36508301 457.63383301 -104.81610352 458.06454102 -104.25048828 458.50830078 C-63.7019105 490.10681337 -11.30070582 503.25718646 39.5234375 497.015625 C62.14298629 493.95123187 84.01415965 487.17403463 104.0859375 476.203125 C102.67201102 472.99490328 100.98100119 470.85062441 98.50460815 468.38128662 C97.76141327 467.63534241 97.01821838 466.88939819 96.25250244 466.12084961 C95.02899078 464.90812378 95.02899078 464.90812378 93.78076172 463.67089844 C92.49285233 462.38255096 92.49285233 462.38255096 91.17892456 461.06817627 C88.82732606 458.71773164 86.47138018 456.37181041 84.11338949 454.02778912 C81.64876759 451.575677 79.18981525 449.11789293 76.73025513 446.66070557 C72.07357863 442.0102431 67.41182776 437.36490203 62.74823105 432.72138047 C57.43841502 427.43392581 52.1342827 422.14078516 46.83061957 416.84715986 C35.92203634 405.95947689 25.00633944 395.07895449 14.0859375 384.203125 C15.9331378 380.17658306 18.61100379 377.48719424 21.7734375 374.453125 C25.00281206 371.33510818 28.12104789 368.20234684 31.02099609 364.77246094 C36.18119928 358.84722725 41.79767881 353.36763016 47.36328125 347.828125 C48.54176933 346.65150576 49.72003403 345.47466275 50.89808655 344.29760742 C53.97496558 341.22451693 57.0548374 338.15444345 60.13537598 335.08502197 C63.28805323 331.94263826 66.43784419 328.79736429 69.58789062 325.65234375 C75.75111004 319.49979693 81.91749915 313.35043938 88.0859375 307.203125 C94.1128019 311.4418065 99.30594885 316.16675605 104.4609375 321.41796875 C105.22970215 322.19193497 105.9984668 322.96590118 106.79052734 323.76332092 C109.22719374 326.21765933 111.65702152 328.67861818 114.0859375 331.140625 C116.5157095 333.59818377 118.94699782 336.05419289 121.38134766 338.50721741 C122.88909121 340.02703895 124.39415713 341.54952352 125.89599609 343.07518005 C129.84030759 347.05659248 133.88904585 350.82025958 138.13427734 354.47755432 C141.42743117 357.38921374 144.49910976 360.51336704 147.5859375 363.640625 C148.6059082 364.66627563 148.6059082 364.66627563 149.64648438 365.71264648 C152.51818893 368.60050273 155.38382188 371.49435575 158.25 374.38769531 C160.35986537 376.51578225 162.47283395 378.64075417 164.5859375 380.765625 C165.21951172 381.40749756 165.85308594 382.04937012 166.50585938 382.71069336 C173.91043861 390.78912007 173.91043861 390.78912007 183.0859375 396.203125 C192.62811998 377.27022326 199.54183828 358.14426926 203.0859375 337.203125 C203.20308105 336.52958984 203.32022461 335.85605469 203.44091797 335.16210938 C211.40163753 287.32681974 198.51134075 235.90776959 171.0859375 196.203125 C167.0074162 190.65658741 162.60409008 185.39428379 158.0859375 180.203125 C157.60624512 179.64898926 157.12655273 179.09485352 156.63232422 178.52392578 C127.58655939 145.22557612 87.59266357 123.56624479 44.0859375 116.203125 C43.41240234 116.08598145 42.73886719 115.96883789 42.04492188 115.84814453 C-23.28369132 104.97619679 -87.98402847 132.40019733 -131.9140625 180.203125 Z M289.0859375 439.203125 C290.0859375 441.203125 290.0859375 441.203125 290.0859375 441.203125 Z " fill="#55C3FE" transform="translate(387.9140625,292.796875)"/>
<path d="M0 0 C3.80757952 0.06084535 7.61485758 0.03997289 11.42278695 0.02936816 C18.00901731 0.02205072 24.59329603 0.0657175 31.17903543 0.1446979 C40.70037958 0.25880921 50.22078658 0.29497081 59.74274036 0.31252979 C75.19341145 0.34311968 90.64304379 0.43614715 106.09315133 0.56876636 C121.09537736 0.69740663 136.09732056 0.79643783 151.09998727 0.85587573 C152.48869168 0.86139292 152.48869168 0.86139292 153.90545073 0.86702158 C158.55024751 0.885293 163.19504627 0.9029847 167.83984637 0.92038822 C206.33226799 1.06536401 244.82276683 1.32336446 283.31434274 1.6249187 C283.31434274 39.5749187 283.31434274 77.5249187 283.31434274 116.6249187 C149.99434274 116.6249187 16.67434274 116.6249187 -120.68565726 116.6249187 C-116.18829103 109.87886935 -116.18829103 109.87886935 -113.68956351 106.8827312 C-112.86186454 105.88487597 -112.86186454 105.88487597 -112.01744437 104.86686206 C-111.14164725 103.8189751 -111.14164725 103.8189751 -110.24815726 102.7499187 C-108.98988628 101.2333719 -107.73208443 99.71643576 -106.47471976 98.19913745 C-105.84082328 97.43520679 -105.20692679 96.67127612 -104.55382133 95.88419604 C-101.72277924 92.46045539 -98.92104182 89.01327127 -96.12315726 85.5624187 C-95.59149955 84.90709155 -95.05984183 84.2517644 -94.51207328 83.57657886 C-93.43939009 82.25412836 -92.36687976 80.93153763 -91.29454398 79.60880542 C-88.59402979 76.27885423 -85.88963931 72.952054 -83.18565726 69.6249187 C-82.10230555 68.2916003 -81.01897221 66.95826697 -79.93565726 65.6249187 C-73.43565726 57.6249187 -73.43565726 57.6249187 -71.81016898 55.62443042 C-70.72831614 54.29284419 -69.64661009 52.9611387 -68.56505179 51.62931323 C-65.83526618 48.26824929 -63.1028551 44.90938251 -60.36534476 41.5546062 C-53.43574064 33.06002251 -53.43574064 33.06002251 -46.6468389 24.4530437 C-45.75764998 23.31324056 -44.86000737 22.17976562 -43.94206953 21.0629853 C-41.5547609 18.12713525 -39.4221829 15.25674414 -37.58121467 11.94690776 C-28.96026279 -2.18698262 -14.84335091 -0.297742 0 0 Z " fill="#FE0200" transform="translate(820.6856572628021,788.3750813007355)"/>
<path d="M0 0 C114.18 0 228.36 0 346 0 C342.30779071 4.3075775 338.81232861 8.30604174 334.81176758 12.25415039 C334.09080902 12.96809967 334.09080902 12.96809967 333.35528564 13.69647217 C332.3235527 14.71780365 331.29071208 15.73801722 330.25684547 16.7571888 C328.60767737 18.38401076 326.96277723 20.01504004 325.3190155 21.64732361 C320.64888815 26.28418455 315.97477874 30.91696484 311.28979492 35.53881836 C308.41024957 38.38016421 305.53853571 41.22924032 302.67130089 44.08300591 C301.59192546 45.15446179 300.50981147 46.22316778 299.42463112 47.28874397 C292.55359908 54.03787483 286.37167371 61.04171708 280.53910828 68.70994568 C277.91251236 72.15648805 275.12997576 75.45886668 272.3125 78.75 C268.54154183 83.16587725 264.85264783 87.63228746 261.24609375 92.18359375 C257.69203762 96.64007108 254.08349417 101.05228522 250.47900391 105.46801758 C249.9432373 106.12568115 249.4074707 106.78334473 248.85546875 107.4609375 C248.37746826 108.04665527 247.89946777 108.63237305 247.40698242 109.23583984 C245.9221041 110.96045211 245.9221041 110.96045211 245.01118755 113.08019638 C241.68172431 116.25837614 237.84048327 115.53607408 233.41401672 115.48101807 C232.41915023 115.48443577 231.42428373 115.48785347 230.39926976 115.49137473 C227.05015207 115.49798769 223.70182762 115.47592067 220.3527832 115.45410156 C217.95828266 115.45297383 215.56378074 115.4536055 213.16928101 115.45587158 C208.00617551 115.45678381 202.84325093 115.44540466 197.68020058 115.42292023 C190.21528814 115.39043261 182.75047351 115.37999656 175.28549805 115.37496826 C163.17457027 115.3662105 151.06375016 115.33958193 138.95288086 115.30175781 C127.18726126 115.26505014 115.42167104 115.23677817 103.65600586 115.21972656 C102.92355662 115.21865457 102.19110737 115.21758258 101.4364627 115.21647811 C95.06535769 115.20722691 88.69425185 115.19861562 82.32314587 115.19006729 C54.88199591 115.15241846 27.4411313 115.07273991 0 115 C0 77.05 0 39.1 0 0 Z " fill="#FE0301" transform="translate(700,293)"/>
<path d="M0 0 C0.66 0.33 1.32 0.66 2 1 C-8.56 11.56 -19.12 22.12 -30 33 C-30.66 32.67 -31.32 32.34 -32 32 C-22.12935835 20.63137479 -11.55414288 9.66775221 0 0 Z " fill="#90D8FF" transform="translate(203,364)"/>
</svg>
